<?xml version="1.0" encoding="utf-8"?>
<svg fill="#000000" width="800px" height="800px" viewBox="0 0 32 32" version="1.1" xmlns="http://www.w3.org/2000/svg">
  <path d="M 16.092 2.239 C 10.838 2.239 6.388 6.714 6.388 12.015 C 6.388 17.566 11.546 23.243 15.015 27.233 C 15.029 27.249 15.589 27.871 16.28 27.871 L 16.341 27.871 C 17.032 27.871 17.589 27.249 17.602 27.233 C 20.858 23.49 25.612 17.318 25.612 12.015 C 25.612 6.714 22.142 2.239 16.092 2.239 Z M 16.413 26.158 C 16.385 26.186 16.344 26.217 16.308 26.243 C 16.271 26.218 16.231 26.186 16.201 26.158 L 15.782 25.675 C 12.493 21.903 7.989 16.735 7.989 12.014 C 7.989 7.583 11.7 3.84 16.091 3.84 C 21.561 3.84 24.01 7.945 24.01 12.014 C 24.01 15.598 21.453 20.357 16.412 26.158 L 16.413 26.158 Z M 16.028 7.089 C 13.375 7.089 11.222 9.241 11.222 11.895 C 11.222 14.55 13.375 16.702 16.028 16.702 C 18.682 16.702 20.834 14.549 20.834 11.895 C 20.834 9.242 18.683 7.089 16.028 7.089 Z M 16.028 15.1 C 14.261 15.1 12.787 13.627 12.787 11.86 C 12.787 10.093 14.224 8.656 15.991 8.656 C 17.759 8.656 19.196 10.093 19.196 11.86 C 19.196 13.627 17.796 15.1 16.028 15.1 Z" style=""/>
</svg>